{
	"patcher" : 	{
		"fileversion" : 1,
		"appversion" : 		{
			"major" : 6,
			"minor" : 1,
			"revision" : 5,
			"architecture" : "x86"
		}
,
		"rect" : [ 34.0, 88.0, 640.0, 480.0 ],
		"bglocked" : 0,
		"openinpresentation" : 1,
		"default_fontsize" : 12.0,
		"default_fontface" : 0,
		"default_fontname" : "Arial",
		"gridonopen" : 0,
		"gridsize" : [ 15.0, 15.0 ],
		"gridsnaponopen" : 0,
		"statusbarvisible" : 0,
		"toolbarvisible" : 1,
		"boxanimatetime" : 200,
		"imprint" : 0,
		"enablehscroll" : 1,
		"enablevscroll" : 1,
		"devicewidth" : 0.0,
		"description" : "",
		"digest" : "",
		"tags" : "",
		"boxes" : [ 			{
				"box" : 				{
					"color" : [ 0.415686, 0.239216, 0.109804, 1.0 ],
					"fontname" : "Arial Bold",
					"fontsize" : 10.0,
					"id" : "obj-9",
					"maxclass" : "newobj",
					"numinlets" : 1,
					"numoutlets" : 0,
					"patching_rect" : [ 242.75, 485.0, 107.0, 18.0 ],
					"text" : "s ---queue_message"
				}

			}
, 			{
				"box" : 				{
					"fontname" : "Arial Bold",
					"fontsize" : 10.0,
					"id" : "obj-63",
					"maxclass" : "message",
					"numinlets" : 2,
					"numoutlets" : 1,
					"outlettype" : [ "" ],
					"patching_rect" : [ 432.75, 436.5, 36.0, 16.0 ],
					"text" : "F8 $1"
				}

			}
, 			{
				"box" : 				{
					"fontname" : "Arial Bold",
					"fontsize" : 10.0,
					"id" : "obj-65",
					"maxclass" : "message",
					"numinlets" : 2,
					"numoutlets" : 1,
					"outlettype" : [ "" ],
					"patching_rect" : [ 378.75, 436.5, 36.0, 16.0 ],
					"text" : "F7 $1"
				}

			}
, 			{
				"box" : 				{
					"fontname" : "Arial Bold",
					"fontsize" : 10.0,
					"id" : "obj-66",
					"maxclass" : "message",
					"numinlets" : 2,
					"numoutlets" : 1,
					"outlettype" : [ "" ],
					"patching_rect" : [ 324.75, 436.5, 36.0, 16.0 ],
					"text" : "F6 $1"
				}

			}
, 			{
				"box" : 				{
					"fontname" : "Arial Bold",
					"fontsize" : 10.0,
					"id" : "obj-67",
					"maxclass" : "message",
					"numinlets" : 2,
					"numoutlets" : 1,
					"outlettype" : [ "" ],
					"patching_rect" : [ 270.75, 436.5, 36.0, 16.0 ],
					"text" : "F5 $1"
				}

			}
, 			{
				"box" : 				{
					"fontname" : "Arial Bold",
					"fontsize" : 10.0,
					"id" : "obj-68",
					"maxclass" : "message",
					"numinlets" : 2,
					"numoutlets" : 1,
					"outlettype" : [ "" ],
					"patching_rect" : [ 216.75, 436.5, 36.0, 16.0 ],
					"text" : "F4 $1"
				}

			}
, 			{
				"box" : 				{
					"fontname" : "Arial Bold",
					"fontsize" : 10.0,
					"id" : "obj-69",
					"maxclass" : "message",
					"numinlets" : 2,
					"numoutlets" : 1,
					"outlettype" : [ "" ],
					"patching_rect" : [ 162.75, 436.5, 36.0, 16.0 ],
					"text" : "F3 $1"
				}

			}
, 			{
				"box" : 				{
					"fontname" : "Arial Bold",
					"fontsize" : 10.0,
					"id" : "obj-70",
					"maxclass" : "message",
					"numinlets" : 2,
					"numoutlets" : 1,
					"outlettype" : [ "" ],
					"patching_rect" : [ 108.75, 436.5, 36.0, 16.0 ],
					"text" : "F2 $1"
				}

			}
, 			{
				"box" : 				{
					"fontname" : "Arial Bold",
					"fontsize" : 10.0,
					"id" : "obj-72",
					"maxclass" : "message",
					"numinlets" : 2,
					"numoutlets" : 1,
					"outlettype" : [ "" ],
					"patching_rect" : [ 54.75, 436.5, 36.0, 16.0 ],
					"text" : "F1 $1"
				}

			}
, 			{
				"box" : 				{
					"color" : [ 0.415686, 0.239216, 0.109804, 1.0 ],
					"fontname" : "Arial Bold",
					"fontsize" : 10.0,
					"id" : "obj-11",
					"maxclass" : "newobj",
					"numinlets" : 1,
					"numoutlets" : 0,
					"patching_rect" : [ 290.285706, 267.0, 107.0, 18.0 ],
					"text" : "s ---queue_message"
				}

			}
, 			{
				"box" : 				{
					"fontname" : "Arial Bold",
					"fontsize" : 10.0,
					"id" : "obj-73",
					"maxclass" : "message",
					"numinlets" : 2,
					"numoutlets" : 1,
					"outlettype" : [ "" ],
					"patching_rect" : [ 480.75, 220.5, 37.0, 16.0 ],
					"text" : "E8 $1"
				}

			}
, 			{
				"box" : 				{
					"fontname" : "Arial Bold",
					"fontsize" : 10.0,
					"id" : "obj-74",
					"maxclass" : "message",
					"numinlets" : 2,
					"numoutlets" : 1,
					"outlettype" : [ "" ],
					"patching_rect" : [ 426.75, 220.5, 37.0, 16.0 ],
					"text" : "E7 $1"
				}

			}
, 			{
				"box" : 				{
					"fontname" : "Arial Bold",
					"fontsize" : 10.0,
					"id" : "obj-75",
					"maxclass" : "message",
					"numinlets" : 2,
					"numoutlets" : 1,
					"outlettype" : [ "" ],
					"patching_rect" : [ 372.75, 220.5, 37.0, 16.0 ],
					"text" : "E6 $1"
				}

			}
, 			{
				"box" : 				{
					"fontname" : "Arial Bold",
					"fontsize" : 10.0,
					"id" : "obj-76",
					"maxclass" : "message",
					"numinlets" : 2,
					"numoutlets" : 1,
					"outlettype" : [ "" ],
					"patching_rect" : [ 318.75, 220.5, 37.0, 16.0 ],
					"text" : "E5 $1"
				}

			}
, 			{
				"box" : 				{
					"fontname" : "Arial Bold",
					"fontsize" : 10.0,
					"id" : "obj-77",
					"maxclass" : "message",
					"numinlets" : 2,
					"numoutlets" : 1,
					"outlettype" : [ "" ],
					"patching_rect" : [ 264.75, 220.5, 37.0, 16.0 ],
					"text" : "E4 $1"
				}

			}
, 			{
				"box" : 				{
					"fontname" : "Arial Bold",
					"fontsize" : 10.0,
					"id" : "obj-78",
					"maxclass" : "message",
					"numinlets" : 2,
					"numoutlets" : 1,
					"outlettype" : [ "" ],
					"patching_rect" : [ 210.75, 220.5, 37.0, 16.0 ],
					"text" : "E3 $1"
				}

			}
, 			{
				"box" : 				{
					"fontname" : "Arial Bold",
					"fontsize" : 10.0,
					"id" : "obj-79",
					"maxclass" : "message",
					"numinlets" : 2,
					"numoutlets" : 1,
					"outlettype" : [ "" ],
					"patching_rect" : [ 156.75, 220.5, 37.0, 16.0 ],
					"text" : "E2 $1"
				}

			}
, 			{
				"box" : 				{
					"fontname" : "Arial Bold",
					"fontsize" : 10.0,
					"id" : "obj-81",
					"maxclass" : "message",
					"numinlets" : 2,
					"numoutlets" : 1,
					"outlettype" : [ "" ],
					"patching_rect" : [ 102.75, 220.5, 37.0, 16.0 ],
					"text" : "E1 $1"
				}

			}
, 			{
				"box" : 				{
					"fontname" : "Arial Bold",
					"fontsize" : 10.0,
					"id" : "obj-1",
					"maxclass" : "newobj",
					"numinlets" : 1,
					"numoutlets" : 4,
					"outlettype" : [ "", "", "", "" ],
					"patching_rect" : [ 155.75, 17.5, 59.5, 18.0 ],
					"restore" : 					{
						"E1" : [ 0.0 ],
						"E2" : [ 0.0 ],
						"E3" : [ 0.0 ],
						"E4" : [ 0.0 ],
						"E5" : [ 0.0 ],
						"E6" : [ 0.0 ],
						"E7" : [ 0.0 ],
						"E8" : [ 0.0 ],
						"F1" : [ 0.0 ],
						"F2" : [ 0.0 ],
						"F3" : [ 0.0 ],
						"F4" : [ 0.0 ],
						"F5" : [ 0.0 ],
						"F6" : [ 0.0 ],
						"F7" : [ 0.0 ],
						"F8" : [ 0.0 ]
					}
,
					"text" : "autopattr",
					"varname" : "u863001162"
				}

			}
, 			{
				"box" : 				{
					"fontname" : "Arial Bold",
					"fontsize" : 10.0,
					"id" : "obj-7",
					"maxclass" : "newobj",
					"numinlets" : 1,
					"numoutlets" : 2,
					"outlettype" : [ "bang", "bang" ],
					"patching_rect" : [ 23.75, 54.0, 67.0, 18.0 ],
					"text" : "bangbang 2"
				}

			}
, 			{
				"box" : 				{
					"comment" : "",
					"id" : "obj-8",
					"maxclass" : "inlet",
					"numinlets" : 0,
					"numoutlets" : 1,
					"outlettype" : [ "" ],
					"patching_rect" : [ 23.75, 14.0, 25.0, 25.0 ]
				}

			}
, 			{
				"box" : 				{
					"fontname" : "Arial Bold",
					"fontsize" : 10.0,
					"id" : "obj-21",
					"maxclass" : "newobj",
					"numinlets" : 1,
					"numoutlets" : 8,
					"outlettype" : [ "bang", "bang", "bang", "bang", "bang", "bang", "bang", "bang" ],
					"patching_rect" : [ 23.75, 300.5, 397.0, 18.0 ],
					"text" : "bangbang 8"
				}

			}
, 			{
				"box" : 				{
					"fontname" : "Arial Bold",
					"fontsize" : 10.0,
					"id" : "obj-22",
					"maxclass" : "newobj",
					"numinlets" : 1,
					"numoutlets" : 8,
					"outlettype" : [ "bang", "bang", "bang", "bang", "bang", "bang", "bang", "bang" ],
					"patching_rect" : [ 71.75, 90.0, 397.0, 18.0 ],
					"text" : "bangbang 8"
				}

			}
, 			{
				"box" : 				{
					"activeneedlecolor" : [ 1.0, 1.0, 1.0, 1.0 ],
					"appearance" : 2,
					"focusbordercolor" : [ 0.0, 0.0, 0.0, 0.0 ],
					"id" : "obj-98",
					"maxclass" : "live.dial",
					"numinlets" : 1,
					"numoutlets" : 2,
					"outlettype" : [ "", "float" ],
					"panelcolor" : [ 0.262745, 0.298039, 0.317647, 1.0 ],
					"parameter_enable" : 1,
					"patching_rect" : [ 401.75, 335.5, 50.0, 80.0 ],
					"presentation" : 1,
					"presentation_rect" : [ 353.0, 83.0, 50.0, 80.0 ],
					"saved_attribute_attributes" : 					{
						"valueof" : 						{
							"parameter_linknames" : 1,
							"parameter_longname" : "F8",
							"parameter_shortname" : "F8",
							"parameter_type" : 0,
							"parameter_mmax" : 100.0,
							"parameter_unitstyle" : 9,
							"parameter_units" : "%0.4f%",
							"parameter_speedlim" : 0.0,
							"parameter_mapping_index" : 48
						}

					}
,
					"textcolor" : [ 1.0, 1.0, 1.0, 1.0 ],
					"varname" : "F8"
				}

			}
, 			{
				"box" : 				{
					"activeneedlecolor" : [ 1.0, 1.0, 1.0, 1.0 ],
					"appearance" : 2,
					"focusbordercolor" : [ 0.0, 0.0, 0.0, 0.0 ],
					"id" : "obj-99",
					"maxclass" : "live.dial",
					"numinlets" : 1,
					"numoutlets" : 2,
					"outlettype" : [ "", "float" ],
					"panelcolor" : [ 0.262745, 0.298039, 0.317647, 1.0 ],
					"parameter_enable" : 1,
					"patching_rect" : [ 347.75, 335.5, 50.0, 80.0 ],
					"presentation" : 1,
					"presentation_rect" : [ 303.0, 83.0, 50.0, 80.0 ],
					"saved_attribute_attributes" : 					{
						"valueof" : 						{
							"parameter_linknames" : 1,
							"parameter_longname" : "F7",
							"parameter_shortname" : "F7",
							"parameter_type" : 0,
							"parameter_mmax" : 100.0,
							"parameter_unitstyle" : 9,
							"parameter_units" : "%0.4f%",
							"parameter_speedlim" : 0.0,
							"parameter_mapping_index" : 47
						}

					}
,
					"textcolor" : [ 1.0, 1.0, 1.0, 1.0 ],
					"varname" : "F7"
				}

			}
, 			{
				"box" : 				{
					"activeneedlecolor" : [ 1.0, 1.0, 1.0, 1.0 ],
					"appearance" : 2,
					"focusbordercolor" : [ 0.0, 0.0, 0.0, 0.0 ],
					"id" : "obj-100",
					"maxclass" : "live.dial",
					"numinlets" : 1,
					"numoutlets" : 2,
					"outlettype" : [ "", "float" ],
					"panelcolor" : [ 0.262745, 0.298039, 0.317647, 1.0 ],
					"parameter_enable" : 1,
					"patching_rect" : [ 293.75, 335.5, 50.0, 80.0 ],
					"presentation" : 1,
					"presentation_rect" : [ 253.0, 83.0, 50.0, 80.0 ],
					"saved_attribute_attributes" : 					{
						"valueof" : 						{
							"parameter_linknames" : 1,
							"parameter_longname" : "F6",
							"parameter_shortname" : "F6",
							"parameter_type" : 0,
							"parameter_mmax" : 100.0,
							"parameter_unitstyle" : 9,
							"parameter_units" : "%0.4f%",
							"parameter_speedlim" : 0.0,
							"parameter_mapping_index" : 46
						}

					}
,
					"textcolor" : [ 1.0, 1.0, 1.0, 1.0 ],
					"varname" : "F6"
				}

			}
, 			{
				"box" : 				{
					"activeneedlecolor" : [ 1.0, 1.0, 1.0, 1.0 ],
					"appearance" : 2,
					"focusbordercolor" : [ 0.0, 0.0, 0.0, 0.0 ],
					"id" : "obj-101",
					"maxclass" : "live.dial",
					"numinlets" : 1,
					"numoutlets" : 2,
					"outlettype" : [ "", "float" ],
					"panelcolor" : [ 0.262745, 0.298039, 0.317647, 1.0 ],
					"parameter_enable" : 1,
					"patching_rect" : [ 239.75, 335.5, 50.0, 80.0 ],
					"presentation" : 1,
					"presentation_rect" : [ 203.0, 83.0, 50.0, 80.0 ],
					"saved_attribute_attributes" : 					{
						"valueof" : 						{
							"parameter_linknames" : 1,
							"parameter_longname" : "F5",
							"parameter_shortname" : "F5",
							"parameter_type" : 0,
							"parameter_mmax" : 100.0,
							"parameter_unitstyle" : 9,
							"parameter_units" : "%0.4f%",
							"parameter_speedlim" : 0.0,
							"parameter_mapping_index" : 45
						}

					}
,
					"textcolor" : [ 1.0, 1.0, 1.0, 1.0 ],
					"varname" : "F5"
				}

			}
, 			{
				"box" : 				{
					"activeneedlecolor" : [ 1.0, 1.0, 1.0, 1.0 ],
					"appearance" : 2,
					"focusbordercolor" : [ 0.0, 0.0, 0.0, 0.0 ],
					"id" : "obj-102",
					"maxclass" : "live.dial",
					"numinlets" : 1,
					"numoutlets" : 2,
					"outlettype" : [ "", "float" ],
					"panelcolor" : [ 0.262745, 0.298039, 0.317647, 1.0 ],
					"parameter_enable" : 1,
					"patching_rect" : [ 185.75, 335.5, 50.0, 80.0 ],
					"presentation" : 1,
					"presentation_rect" : [ 153.0, 83.0, 50.0, 80.0 ],
					"saved_attribute_attributes" : 					{
						"valueof" : 						{
							"parameter_linknames" : 1,
							"parameter_longname" : "F4",
							"parameter_shortname" : "F4",
							"parameter_type" : 0,
							"parameter_mmax" : 100.0,
							"parameter_unitstyle" : 9,
							"parameter_units" : "%0.4f%",
							"parameter_speedlim" : 0.0,
							"parameter_mapping_index" : 44
						}

					}
,
					"textcolor" : [ 1.0, 1.0, 1.0, 1.0 ],
					"varname" : "F4"
				}

			}
, 			{
				"box" : 				{
					"activeneedlecolor" : [ 1.0, 1.0, 1.0, 1.0 ],
					"appearance" : 2,
					"focusbordercolor" : [ 0.0, 0.0, 0.0, 0.0 ],
					"id" : "obj-103",
					"maxclass" : "live.dial",
					"numinlets" : 1,
					"numoutlets" : 2,
					"outlettype" : [ "", "float" ],
					"panelcolor" : [ 0.262745, 0.298039, 0.317647, 1.0 ],
					"parameter_enable" : 1,
					"patching_rect" : [ 131.75, 335.5, 50.0, 80.0 ],
					"presentation" : 1,
					"presentation_rect" : [ 103.0, 83.0, 50.0, 80.0 ],
					"saved_attribute_attributes" : 					{
						"valueof" : 						{
							"parameter_linknames" : 1,
							"parameter_longname" : "F3",
							"parameter_shortname" : "F3",
							"parameter_type" : 0,
							"parameter_mmax" : 100.0,
							"parameter_unitstyle" : 9,
							"parameter_units" : "%0.4f%",
							"parameter_speedlim" : 0.0,
							"parameter_mapping_index" : 43
						}

					}
,
					"textcolor" : [ 1.0, 1.0, 1.0, 1.0 ],
					"varname" : "F3"
				}

			}
, 			{
				"box" : 				{
					"activeneedlecolor" : [ 1.0, 1.0, 1.0, 1.0 ],
					"appearance" : 2,
					"focusbordercolor" : [ 0.0, 0.0, 0.0, 0.0 ],
					"id" : "obj-104",
					"maxclass" : "live.dial",
					"numinlets" : 1,
					"numoutlets" : 2,
					"outlettype" : [ "", "float" ],
					"panelcolor" : [ 0.262745, 0.298039, 0.317647, 1.0 ],
					"parameter_enable" : 1,
					"patching_rect" : [ 77.75, 335.5, 50.0, 80.0 ],
					"presentation" : 1,
					"presentation_rect" : [ 53.0, 83.0, 50.0, 80.0 ],
					"saved_attribute_attributes" : 					{
						"valueof" : 						{
							"parameter_linknames" : 1,
							"parameter_longname" : "F2",
							"parameter_shortname" : "F2",
							"parameter_type" : 0,
							"parameter_mmax" : 100.0,
							"parameter_unitstyle" : 9,
							"parameter_units" : "%0.4f%",
							"parameter_speedlim" : 0.0,
							"parameter_mapping_index" : 42
						}

					}
,
					"textcolor" : [ 1.0, 1.0, 1.0, 1.0 ],
					"varname" : "F2"
				}

			}
, 			{
				"box" : 				{
					"activeneedlecolor" : [ 1.0, 1.0, 1.0, 1.0 ],
					"appearance" : 2,
					"focusbordercolor" : [ 0.0, 0.0, 0.0, 0.0 ],
					"id" : "obj-105",
					"maxclass" : "live.dial",
					"numinlets" : 1,
					"numoutlets" : 2,
					"outlettype" : [ "", "float" ],
					"panelcolor" : [ 0.262745, 0.298039, 0.317647, 1.0 ],
					"parameter_enable" : 1,
					"patching_rect" : [ 23.75, 335.5, 50.0, 80.0 ],
					"presentation" : 1,
					"presentation_rect" : [ 3.0, 83.0, 50.0, 80.0 ],
					"saved_attribute_attributes" : 					{
						"valueof" : 						{
							"parameter_linknames" : 1,
							"parameter_longname" : "F1",
							"parameter_shortname" : "F1",
							"parameter_type" : 0,
							"parameter_mmax" : 100.0,
							"parameter_unitstyle" : 9,
							"parameter_units" : "%0.4f%",
							"parameter_speedlim" : 0.0,
							"parameter_mapping_index" : 41
						}

					}
,
					"textcolor" : [ 1.0, 1.0, 1.0, 1.0 ],
					"varname" : "F1"
				}

			}
, 			{
				"box" : 				{
					"activeneedlecolor" : [ 1.0, 1.0, 1.0, 1.0 ],
					"appearance" : 2,
					"focusbordercolor" : [ 0.0, 0.0, 0.0, 0.0 ],
					"id" : "obj-106",
					"maxclass" : "live.dial",
					"numinlets" : 1,
					"numoutlets" : 2,
					"outlettype" : [ "", "float" ],
					"panelcolor" : [ 0.262745, 0.298039, 0.317647, 1.0 ],
					"parameter_enable" : 1,
					"patching_rect" : [ 449.75, 122.5, 50.0, 80.0 ],
					"presentation" : 1,
					"presentation_rect" : [ 353.0, 3.0, 50.0, 80.0 ],
					"saved_attribute_attributes" : 					{
						"valueof" : 						{
							"parameter_linknames" : 1,
							"parameter_longname" : "E8",
							"parameter_shortname" : "E8",
							"parameter_type" : 0,
							"parameter_mmax" : 100.0,
							"parameter_unitstyle" : 9,
							"parameter_units" : "%0.4f%",
							"parameter_speedlim" : 0.0,
							"parameter_mapping_index" : 40
						}

					}
,
					"textcolor" : [ 1.0, 1.0, 1.0, 1.0 ],
					"varname" : "E8"
				}

			}
, 			{
				"box" : 				{
					"activeneedlecolor" : [ 1.0, 1.0, 1.0, 1.0 ],
					"appearance" : 2,
					"focusbordercolor" : [ 0.0, 0.0, 0.0, 0.0 ],
					"id" : "obj-107",
					"maxclass" : "live.dial",
					"numinlets" : 1,
					"numoutlets" : 2,
					"outlettype" : [ "", "float" ],
					"panelcolor" : [ 0.262745, 0.298039, 0.317647, 1.0 ],
					"parameter_enable" : 1,
					"patching_rect" : [ 395.75, 122.5, 50.0, 80.0 ],
					"presentation" : 1,
					"presentation_rect" : [ 303.0, 3.0, 50.0, 80.0 ],
					"saved_attribute_attributes" : 					{
						"valueof" : 						{
							"parameter_linknames" : 1,
							"parameter_longname" : "E7",
							"parameter_shortname" : "E7",
							"parameter_type" : 0,
							"parameter_mmax" : 100.0,
							"parameter_unitstyle" : 9,
							"parameter_units" : "%0.4f%",
							"parameter_speedlim" : 0.0,
							"parameter_mapping_index" : 39
						}

					}
,
					"textcolor" : [ 1.0, 1.0, 1.0, 1.0 ],
					"varname" : "E7"
				}

			}
, 			{
				"box" : 				{
					"activeneedlecolor" : [ 1.0, 1.0, 1.0, 1.0 ],
					"appearance" : 2,
					"focusbordercolor" : [ 0.0, 0.0, 0.0, 0.0 ],
					"id" : "obj-108",
					"maxclass" : "live.dial",
					"numinlets" : 1,
					"numoutlets" : 2,
					"outlettype" : [ "", "float" ],
					"panelcolor" : [ 0.262745, 0.298039, 0.317647, 1.0 ],
					"parameter_enable" : 1,
					"patching_rect" : [ 341.75, 122.5, 50.0, 80.0 ],
					"presentation" : 1,
					"presentation_rect" : [ 253.0, 3.0, 50.0, 80.0 ],
					"saved_attribute_attributes" : 					{
						"valueof" : 						{
							"parameter_linknames" : 1,
							"parameter_longname" : "E6",
							"parameter_shortname" : "E6",
							"parameter_type" : 0,
							"parameter_mmax" : 100.0,
							"parameter_unitstyle" : 9,
							"parameter_units" : "%0.4f%",
							"parameter_speedlim" : 0.0,
							"parameter_mapping_index" : 38
						}

					}
,
					"textcolor" : [ 1.0, 1.0, 1.0, 1.0 ],
					"varname" : "E6"
				}

			}
, 			{
				"box" : 				{
					"activeneedlecolor" : [ 1.0, 1.0, 1.0, 1.0 ],
					"appearance" : 2,
					"focusbordercolor" : [ 0.0, 0.0, 0.0, 0.0 ],
					"id" : "obj-109",
					"maxclass" : "live.dial",
					"numinlets" : 1,
					"numoutlets" : 2,
					"outlettype" : [ "", "float" ],
					"panelcolor" : [ 0.262745, 0.298039, 0.317647, 1.0 ],
					"parameter_enable" : 1,
					"patching_rect" : [ 287.75, 122.5, 50.0, 80.0 ],
					"presentation" : 1,
					"presentation_rect" : [ 203.0, 3.0, 50.0, 80.0 ],
					"saved_attribute_attributes" : 					{
						"valueof" : 						{
							"parameter_linknames" : 1,
							"parameter_longname" : "E5",
							"parameter_shortname" : "E5",
							"parameter_type" : 0,
							"parameter_mmax" : 100.0,
							"parameter_unitstyle" : 9,
							"parameter_units" : "%0.4f%",
							"parameter_speedlim" : 0.0,
							"parameter_mapping_index" : 37
						}

					}
,
					"textcolor" : [ 1.0, 1.0, 1.0, 1.0 ],
					"varname" : "E5"
				}

			}
, 			{
				"box" : 				{
					"activeneedlecolor" : [ 1.0, 1.0, 1.0, 1.0 ],
					"appearance" : 2,
					"focusbordercolor" : [ 0.0, 0.0, 0.0, 0.0 ],
					"id" : "obj-110",
					"maxclass" : "live.dial",
					"numinlets" : 1,
					"numoutlets" : 2,
					"outlettype" : [ "", "float" ],
					"panelcolor" : [ 0.262745, 0.298039, 0.317647, 1.0 ],
					"parameter_enable" : 1,
					"patching_rect" : [ 233.75, 122.5, 50.0, 80.0 ],
					"presentation" : 1,
					"presentation_rect" : [ 153.0, 3.0, 50.0, 80.0 ],
					"saved_attribute_attributes" : 					{
						"valueof" : 						{
							"parameter_linknames" : 1,
							"parameter_longname" : "E4",
							"parameter_shortname" : "E4",
							"parameter_type" : 0,
							"parameter_mmax" : 100.0,
							"parameter_unitstyle" : 9,
							"parameter_units" : "%0.4f%",
							"parameter_speedlim" : 0.0,
							"parameter_mapping_index" : 36
						}

					}
,
					"textcolor" : [ 1.0, 1.0, 1.0, 1.0 ],
					"varname" : "E4"
				}

			}
, 			{
				"box" : 				{
					"activeneedlecolor" : [ 1.0, 1.0, 1.0, 1.0 ],
					"appearance" : 2,
					"focusbordercolor" : [ 0.0, 0.0, 0.0, 0.0 ],
					"id" : "obj-111",
					"maxclass" : "live.dial",
					"numinlets" : 1,
					"numoutlets" : 2,
					"outlettype" : [ "", "float" ],
					"panelcolor" : [ 0.262745, 0.298039, 0.317647, 1.0 ],
					"parameter_enable" : 1,
					"patching_rect" : [ 179.75, 122.5, 50.0, 80.0 ],
					"presentation" : 1,
					"presentation_rect" : [ 103.0, 3.0, 50.0, 80.0 ],
					"saved_attribute_attributes" : 					{
						"valueof" : 						{
							"parameter_linknames" : 1,
							"parameter_longname" : "E3",
							"parameter_shortname" : "E3",
							"parameter_type" : 0,
							"parameter_mmax" : 100.0,
							"parameter_unitstyle" : 9,
							"parameter_units" : "%0.4f%",
							"parameter_speedlim" : 0.0,
							"parameter_mapping_index" : 35
						}

					}
,
					"textcolor" : [ 1.0, 1.0, 1.0, 1.0 ],
					"varname" : "E3"
				}

			}
, 			{
				"box" : 				{
					"activeneedlecolor" : [ 1.0, 1.0, 1.0, 1.0 ],
					"appearance" : 2,
					"focusbordercolor" : [ 0.0, 0.0, 0.0, 0.0 ],
					"id" : "obj-112",
					"maxclass" : "live.dial",
					"numinlets" : 1,
					"numoutlets" : 2,
					"outlettype" : [ "", "float" ],
					"panelcolor" : [ 0.262745, 0.298039, 0.317647, 1.0 ],
					"parameter_enable" : 1,
					"patching_rect" : [ 125.75, 122.5, 50.0, 80.0 ],
					"presentation" : 1,
					"presentation_rect" : [ 53.0, 3.0, 50.0, 80.0 ],
					"saved_attribute_attributes" : 					{
						"valueof" : 						{
							"parameter_linknames" : 1,
							"parameter_longname" : "E2",
							"parameter_shortname" : "E2",
							"parameter_type" : 0,
							"parameter_mmax" : 100.0,
							"parameter_unitstyle" : 9,
							"parameter_units" : "%0.4f%",
							"parameter_speedlim" : 0.0,
							"parameter_mapping_index" : 34
						}

					}
,
					"textcolor" : [ 1.0, 1.0, 1.0, 1.0 ],
					"varname" : "E2"
				}

			}
, 			{
				"box" : 				{
					"activeneedlecolor" : [ 1.0, 1.0, 1.0, 1.0 ],
					"appearance" : 2,
					"focusbordercolor" : [ 0.0, 0.0, 0.0, 0.0 ],
					"id" : "obj-113",
					"maxclass" : "live.dial",
					"numinlets" : 1,
					"numoutlets" : 2,
					"outlettype" : [ "", "float" ],
					"panelcolor" : [ 0.262745, 0.298039, 0.317647, 1.0 ],
					"parameter_enable" : 1,
					"patching_rect" : [ 71.75, 122.5, 50.0, 80.0 ],
					"presentation" : 1,
					"presentation_rect" : [ 3.0, 3.0, 50.0, 80.0 ],
					"saved_attribute_attributes" : 					{
						"valueof" : 						{
							"parameter_linknames" : 1,
							"parameter_longname" : "E1",
							"parameter_shortname" : "E1",
							"parameter_type" : 0,
							"parameter_mmax" : 100.0,
							"parameter_unitstyle" : 9,
							"parameter_units" : "%0.4f%",
							"parameter_speedlim" : 0.0,
							"parameter_mapping_index" : 33
						}

					}
,
					"textcolor" : [ 1.0, 1.0, 1.0, 1.0 ],
					"varname" : "E1"
				}

			}
 ],
		"lines" : [ 			{
				"patchline" : 				{
					"destination" : [ "obj-66", 0 ],
					"disabled" : 0,
					"hidden" : 0,
					"source" : [ "obj-100", 1 ]
				}

			}
, 			{
				"patchline" : 				{
					"destination" : [ "obj-67", 0 ],
					"disabled" : 0,
					"hidden" : 0,
					"source" : [ "obj-101", 1 ]
				}

			}
, 			{
				"patchline" : 				{
					"destination" : [ "obj-68", 0 ],
					"disabled" : 0,
					"hidden" : 0,
					"source" : [ "obj-102", 1 ]
				}

			}
, 			{
				"patchline" : 				{
					"destination" : [ "obj-69", 0 ],
					"disabled" : 0,
					"hidden" : 0,
					"source" : [ "obj-103", 1 ]
				}

			}
, 			{
				"patchline" : 				{
					"destination" : [ "obj-70", 0 ],
					"disabled" : 0,
					"hidden" : 0,
					"source" : [ "obj-104", 1 ]
				}

			}
, 			{
				"patchline" : 				{
					"destination" : [ "obj-72", 0 ],
					"disabled" : 0,
					"hidden" : 0,
					"source" : [ "obj-105", 1 ]
				}

			}
, 			{
				"patchline" : 				{
					"destination" : [ "obj-73", 0 ],
					"disabled" : 0,
					"hidden" : 0,
					"source" : [ "obj-106", 1 ]
				}

			}
, 			{
				"patchline" : 				{
					"destination" : [ "obj-74", 0 ],
					"disabled" : 0,
					"hidden" : 0,
					"source" : [ "obj-107", 1 ]
				}

			}
, 			{
				"patchline" : 				{
					"destination" : [ "obj-75", 0 ],
					"disabled" : 0,
					"hidden" : 0,
					"source" : [ "obj-108", 1 ]
				}

			}
, 			{
				"patchline" : 				{
					"destination" : [ "obj-76", 0 ],
					"disabled" : 0,
					"hidden" : 0,
					"source" : [ "obj-109", 1 ]
				}

			}
, 			{
				"patchline" : 				{
					"destination" : [ "obj-77", 0 ],
					"disabled" : 0,
					"hidden" : 0,
					"source" : [ "obj-110", 1 ]
				}

			}
, 			{
				"patchline" : 				{
					"destination" : [ "obj-78", 0 ],
					"disabled" : 0,
					"hidden" : 0,
					"source" : [ "obj-111", 1 ]
				}

			}
, 			{
				"patchline" : 				{
					"destination" : [ "obj-79", 0 ],
					"disabled" : 0,
					"hidden" : 0,
					"source" : [ "obj-112", 1 ]
				}

			}
, 			{
				"patchline" : 				{
					"destination" : [ "obj-81", 0 ],
					"disabled" : 0,
					"hidden" : 0,
					"source" : [ "obj-113", 1 ]
				}

			}
, 			{
				"patchline" : 				{
					"destination" : [ "obj-100", 0 ],
					"disabled" : 0,
					"hidden" : 0,
					"source" : [ "obj-21", 5 ]
				}

			}
, 			{
				"patchline" : 				{
					"destination" : [ "obj-101", 0 ],
					"disabled" : 0,
					"hidden" : 0,
					"source" : [ "obj-21", 4 ]
				}

			}
, 			{
				"patchline" : 				{
					"destination" : [ "obj-102", 0 ],
					"disabled" : 0,
					"hidden" : 0,
					"source" : [ "obj-21", 3 ]
				}

			}
, 			{
				"patchline" : 				{
					"destination" : [ "obj-103", 0 ],
					"disabled" : 0,
					"hidden" : 0,
					"source" : [ "obj-21", 2 ]
				}

			}
, 			{
				"patchline" : 				{
					"destination" : [ "obj-104", 0 ],
					"disabled" : 0,
					"hidden" : 0,
					"source" : [ "obj-21", 1 ]
				}

			}
, 			{
				"patchline" : 				{
					"destination" : [ "obj-105", 0 ],
					"disabled" : 0,
					"hidden" : 0,
					"source" : [ "obj-21", 0 ]
				}

			}
, 			{
				"patchline" : 				{
					"destination" : [ "obj-98", 0 ],
					"disabled" : 0,
					"hidden" : 0,
					"source" : [ "obj-21", 7 ]
				}

			}
, 			{
				"patchline" : 				{
					"destination" : [ "obj-99", 0 ],
					"disabled" : 0,
					"hidden" : 0,
					"source" : [ "obj-21", 6 ]
				}

			}
, 			{
				"patchline" : 				{
					"destination" : [ "obj-106", 0 ],
					"disabled" : 0,
					"hidden" : 0,
					"source" : [ "obj-22", 7 ]
				}

			}
, 			{
				"patchline" : 				{
					"destination" : [ "obj-107", 0 ],
					"disabled" : 0,
					"hidden" : 0,
					"source" : [ "obj-22", 6 ]
				}

			}
, 			{
				"patchline" : 				{
					"destination" : [ "obj-108", 0 ],
					"disabled" : 0,
					"hidden" : 0,
					"source" : [ "obj-22", 5 ]
				}

			}
, 			{
				"patchline" : 				{
					"destination" : [ "obj-109", 0 ],
					"disabled" : 0,
					"hidden" : 0,
					"source" : [ "obj-22", 4 ]
				}

			}
, 			{
				"patchline" : 				{
					"destination" : [ "obj-110", 0 ],
					"disabled" : 0,
					"hidden" : 0,
					"source" : [ "obj-22", 3 ]
				}

			}
, 			{
				"patchline" : 				{
					"destination" : [ "obj-111", 0 ],
					"disabled" : 0,
					"hidden" : 0,
					"source" : [ "obj-22", 2 ]
				}

			}
, 			{
				"patchline" : 				{
					"destination" : [ "obj-112", 0 ],
					"disabled" : 0,
					"hidden" : 0,
					"source" : [ "obj-22", 1 ]
				}

			}
, 			{
				"patchline" : 				{
					"destination" : [ "obj-113", 0 ],
					"disabled" : 0,
					"hidden" : 0,
					"source" : [ "obj-22", 0 ]
				}

			}
, 			{
				"patchline" : 				{
					"destination" : [ "obj-9", 0 ],
					"disabled" : 0,
					"hidden" : 0,
					"midpoints" : [ 442.25, 470.0, 252.25, 470.0 ],
					"source" : [ "obj-63", 0 ]
				}

			}
, 			{
				"patchline" : 				{
					"destination" : [ "obj-9", 0 ],
					"disabled" : 0,
					"hidden" : 0,
					"midpoints" : [ 388.25, 470.0, 252.25, 470.0 ],
					"source" : [ "obj-65", 0 ]
				}

			}
, 			{
				"patchline" : 				{
					"destination" : [ "obj-9", 0 ],
					"disabled" : 0,
					"hidden" : 0,
					"midpoints" : [ 334.25, 470.0, 252.25, 470.0 ],
					"source" : [ "obj-66", 0 ]
				}

			}
, 			{
				"patchline" : 				{
					"destination" : [ "obj-9", 0 ],
					"disabled" : 0,
					"hidden" : 0,
					"midpoints" : [ 280.25, 470.0, 252.25, 470.0 ],
					"source" : [ "obj-67", 0 ]
				}

			}
, 			{
				"patchline" : 				{
					"destination" : [ "obj-9", 0 ],
					"disabled" : 0,
					"hidden" : 0,
					"midpoints" : [ 226.25, 470.0, 252.25, 470.0 ],
					"source" : [ "obj-68", 0 ]
				}

			}
, 			{
				"patchline" : 				{
					"destination" : [ "obj-9", 0 ],
					"disabled" : 0,
					"hidden" : 0,
					"midpoints" : [ 172.25, 470.0, 252.25, 470.0 ],
					"source" : [ "obj-69", 0 ]
				}

			}
, 			{
				"patchline" : 				{
					"destination" : [ "obj-21", 0 ],
					"disabled" : 0,
					"hidden" : 0,
					"source" : [ "obj-7", 0 ]
				}

			}
, 			{
				"patchline" : 				{
					"destination" : [ "obj-22", 0 ],
					"disabled" : 0,
					"hidden" : 0,
					"source" : [ "obj-7", 1 ]
				}

			}
, 			{
				"patchline" : 				{
					"destination" : [ "obj-9", 0 ],
					"disabled" : 0,
					"hidden" : 0,
					"midpoints" : [ 118.25, 470.0, 252.25, 470.0 ],
					"source" : [ "obj-70", 0 ]
				}

			}
, 			{
				"patchline" : 				{
					"destination" : [ "obj-9", 0 ],
					"disabled" : 0,
					"hidden" : 0,
					"midpoints" : [ 64.25, 470.0, 252.25, 470.0 ],
					"source" : [ "obj-72", 0 ]
				}

			}
, 			{
				"patchline" : 				{
					"destination" : [ "obj-11", 0 ],
					"disabled" : 0,
					"hidden" : 0,
					"midpoints" : [ 490.25, 252.0, 299.785706, 252.0 ],
					"source" : [ "obj-73", 0 ]
				}

			}
, 			{
				"patchline" : 				{
					"destination" : [ "obj-11", 0 ],
					"disabled" : 0,
					"hidden" : 0,
					"midpoints" : [ 436.25, 252.0, 299.785706, 252.0 ],
					"source" : [ "obj-74", 0 ]
				}

			}
, 			{
				"patchline" : 				{
					"destination" : [ "obj-11", 0 ],
					"disabled" : 0,
					"hidden" : 0,
					"midpoints" : [ 382.25, 252.0, 299.785706, 252.0 ],
					"source" : [ "obj-75", 0 ]
				}

			}
, 			{
				"patchline" : 				{
					"destination" : [ "obj-11", 0 ],
					"disabled" : 0,
					"hidden" : 0,
					"midpoints" : [ 328.25, 252.0, 299.785706, 252.0 ],
					"source" : [ "obj-76", 0 ]
				}

			}
, 			{
				"patchline" : 				{
					"destination" : [ "obj-11", 0 ],
					"disabled" : 0,
					"hidden" : 0,
					"midpoints" : [ 274.25, 252.0, 299.785706, 252.0 ],
					"source" : [ "obj-77", 0 ]
				}

			}
, 			{
				"patchline" : 				{
					"destination" : [ "obj-11", 0 ],
					"disabled" : 0,
					"hidden" : 0,
					"midpoints" : [ 220.25, 252.0, 299.785706, 252.0 ],
					"source" : [ "obj-78", 0 ]
				}

			}
, 			{
				"patchline" : 				{
					"destination" : [ "obj-11", 0 ],
					"disabled" : 0,
					"hidden" : 0,
					"midpoints" : [ 166.25, 252.0, 299.785706, 252.0 ],
					"source" : [ "obj-79", 0 ]
				}

			}
, 			{
				"patchline" : 				{
					"destination" : [ "obj-7", 0 ],
					"disabled" : 0,
					"hidden" : 0,
					"source" : [ "obj-8", 0 ]
				}

			}
, 			{
				"patchline" : 				{
					"destination" : [ "obj-11", 0 ],
					"disabled" : 0,
					"hidden" : 0,
					"midpoints" : [ 112.25, 252.0, 299.785706, 252.0 ],
					"source" : [ "obj-81", 0 ]
				}

			}
, 			{
				"patchline" : 				{
					"destination" : [ "obj-63", 0 ],
					"disabled" : 0,
					"hidden" : 0,
					"source" : [ "obj-98", 1 ]
				}

			}
, 			{
				"patchline" : 				{
					"destination" : [ "obj-65", 0 ],
					"disabled" : 0,
					"hidden" : 0,
					"source" : [ "obj-99", 1 ]
				}

			}
 ],
		"parameters" : 		{
			"obj-111" : [ "E3", "E3", 0 ],
			"obj-106" : [ "E8", "E8", 0 ],
			"obj-99" : [ "F7", "F7", 0 ],
			"obj-101" : [ "F5", "F5", 0 ],
			"obj-110" : [ "E4", "E4", 0 ],
			"obj-105" : [ "F1", "F1", 0 ],
			"obj-98" : [ "F8", "F8", 0 ],
			"obj-103" : [ "F3", "F3", 0 ],
			"obj-109" : [ "E5", "E5", 0 ],
			"obj-104" : [ "F2", "F2", 0 ],
			"obj-113" : [ "E1", "E1", 0 ],
			"obj-108" : [ "E6", "E6", 0 ],
			"obj-102" : [ "F4", "F4", 0 ],
			"obj-112" : [ "E2", "E2", 0 ],
			"obj-107" : [ "E7", "E7", 0 ],
			"obj-100" : [ "F6", "F6", 0 ]
		}
,
		"dependency_cache" : [  ]
	}

}
